<svg xmlns="http://www.w3.org/2000/svg" xmlns:xlink="http://www.w3.org/1999/xlink" width="500" zoomAndPan="magnify" viewBox="0 0 375 374.999991" height="500" preserveAspectRatio="xMidYMid meet" version="1.0"><defs><clipPath id="dc90eb23d3"><path d="M 98 44.0625 L 337.5 44.0625 L 337.5 331.3125 L 98 331.3125 Z M 98 44.0625 " clip-rule="nonzero"/></clipPath><clipPath id="bfc5f82bf0"><path d="M 37.5 153 L 141 153 L 141 215 L 37.5 215 Z M 37.5 153 " clip-rule="nonzero"/></clipPath></defs><rect x="-37.5" width="450" fill="#ffffff" y="-37.499999" height="449.999989" fill-opacity="1"/><rect x="-37.5" width="450" fill="#fffbf6" y="-37.499999" height="449.999989" fill-opacity="1"/><g clip-path="url(#dc90eb23d3)"><path fill="#ca181e" d="M 116.066406 274.195312 L 186.746094 44.125 L 222.105469 153.796875 L 337.503906 153.796875 L 244.144531 221.714844 L 279.917969 331.253906 L 186.9375 263.335938 L 98.222656 323.882812 L 289.625 169.375 L 183.609375 169.375 L 134.96875 257.191406 L 176.238281 153.796875 L 205.753906 153.796875 L 186.746094 94.832031 Z M 200.160156 253.714844 L 250.152344 290.230469 L 230.917969 231.339844 Z M 200.160156 253.714844 " fill-opacity="1" fill-rule="evenodd"/></g><g clip-path="url(#bfc5f82bf0)"><path fill="#234093" d="M 140.167969 153.796875 L 37.5 153.796875 L 121.355469 214.804688 L 125.640625 200.914062 L 85.375 169.375 L 135.363281 169.375 Z M 140.167969 153.796875 " fill-opacity="1" fill-rule="evenodd"/></g></svg>